# xmcd CD database file
#
# Track frame offsets:
#	187
#	17852
#	36630
#	52780
#	67587
#	86870
#	104190
#	121100
#	139735
#	158507
#
# Disc length: 2283 seconds
#
# Revision: 5
# Processed by: cddbd v1.5.1PL0 Copyright (c) Steve Scherf et al.
# Submitted via: CDex 1.51
#
DISCID=8008e90a
DTITLE=Stryper - In God We Trust
DYEAR=1988
DGENRE=Heavy Metal
TTITLE0=In God We Trust
TTITLE1=Always There For You
TTITLE2=Keep The Fire Burning
TTITLE3=I Believe In You
TTITLE4=The Writings On The Wall
TTITLE5=It's Up 2 You
TTITLE6=The World Of You And I
TTITLE7=Come To The Everlife
TTITLE8=Lonely
TTITLE9=The Reign
EXTD=Stryper is: Micheal Sweet, Robert Sweet, Tim Gaines,\nand Oz Fox.\n YEAR: 1988
EXTT0=
EXTT1=
EXTT2=
EXTT3=
EXTT4=
EXTT5=
EXTT6=
EXTT7=
EXTT8=
EXTT9=
PLAYORDER=
